<?xml version="1.0" standalone="no"?>
<!DOCTYPE svg PUBLIC "-//W3C//DTD SVG 20010904//EN"
 "http://www.w3.org/TR/2001/REC-SVG-20010904/DTD/svg10.dtd">
<svg version="1.0" xmlns="http://www.w3.org/2000/svg"
 width="225.000000pt" height="225.000000pt" viewBox="0 0 225.000000 225.000000"
 preserveAspectRatio="xMidYMid meet">
<metadata>
Created by potrace 1.11, written by Peter Selinger 2001-2013
</metadata>
<g transform="translate(0.000000,225.000000) scale(0.100000,-0.100000)"
fill="#000000" stroke="none">
<path d="M1003 2031 c-360 -58 -644 -328 -717 -685 -10 -45 -16 -126 -16 -202
l0 -127 -46 -49 c-71 -76 -106 -161 -112 -272 -5 -109 12 -181 64 -268 79
-129 215 -206 383 -215 114 -6 159 8 191 59 20 32 20 46 18 405 l-3 373 -33
32 c-32 32 -34 33 -135 36 -81 3 -115 -1 -166 -17 l-64 -20 6 112 c8 140 25
208 81 322 90 182 234 308 437 382 69 25 85 27 234 27 149 0 165 -2 234 -27
203 -74 347 -200 437 -382 56 -114 73 -182 81 -322 l6 -112 -44 17 c-32 12
-78 16 -166 17 l-123 0 -32 -33 -33 -32 -3 -373 c-2 -359 -2 -373 18 -405 26
-43 74 -62 153 -62 185 0 336 79 421 218 52 87 69 159 64 268 -6 111 -41 196
-112 272 l-46 49 0 126 c0 69 -6 159 -14 199 -74 388 -411 678 -806 693 -58 2
-128 0 -157 -4z m-345 -1019 c9 -7 12 -83 10 -348 l-3 -339 -57 -3 -58 -3 0
344 c0 189 3 347 7 350 9 10 85 8 101 -1z m1040 -345 l2 -348 -57 3 -58 3 -3
339 c-2 265 1 341 10 348 7 4 33 7 58 6 l45 -3 3 -348z"/>
</g>
</svg>
